<svg height="512pt" viewBox="-133 0 512 512.00032" width="512pt" xmlns="http://www.w3.org/2000/svg"><path d="m232.566406 24.890625c-20.71875-27.53125-59.976562-33.074219-87.511718-12.355469-14.816407 11.152344-23.6875 28.164063-24.609376 46.582032l-108.308593 94.691406 8.863281 11.78125-21 15.800781 18.066406 24.007813 21-15.800782 8.863282 11.777344 52-33.46875v314.046875h-61.59375v30.046875h153.234374v-30.046875h-61.59375v-333.386719l39.023438-25.113281c4.523438 1.015625 9.109375 1.523437 13.675781 1.523437 13.351563 0 26.527344-4.292968 37.535157-12.578124 27.535156-20.71875 33.074218-59.976563 12.355468-87.507813zm-177.417968 136.105469-2.214844-2.945313 80.304687-70.207031 11.609375 15.421875zm146.996093-72.605469c-7.660156 5.765625-17.335937 7.808594-26.5625 5.75l-25.128906-33.390625c.453125-9.605469 5.019531-18.449219 12.671875-24.207031 14.292969-10.753907 34.675781-7.878907 45.433594 6.417969 10.757812 14.292968 7.878906 34.671874-6.414063 45.429687zm0 0"/></svg>