<svg id="icons" enable-background="new 0 0 64 64" height="512" viewBox="0 0 64 64" width="512" xmlns="http://www.w3.org/2000/svg"><path d="m18.502 17.001c.495 0 3.684-.177 6.655-.443 6.293-.565 6.854-.989 6.854-2.057s-.562-1.491-6.854-2.057c-2.972-.267-6.16-.443-6.655-.443-1.379 0-2.5 1.121-2.5 2.5s1.121 2.5 2.5 2.5zm0-3c.765 0 4.155.214 7.136.5-2.98.286-6.371.5-7.136.5-.275 0-.5-.225-.5-.5s.225-.5.5-.5z"/><path d="m25.157 23.446c-2.972-.267-6.16-.443-6.655-.443-1.379 0-2.5 1.121-2.5 2.5s1.121 2.5 2.5 2.5c.495 0 3.684-.177 6.655-.443 6.293-.565 6.854-.989 6.854-2.057s-.561-1.491-6.854-2.057zm-6.655 2.557c-.275 0-.5-.225-.5-.5s.225-.5.5-.5c.765 0 4.155.214 7.136.5-2.981.286-6.371.5-7.136.5z"/><path d="m47 0h-30c-2.757 0-5 2.243-5 5v54c0 2.757 2.243 5 5 5h30c2.757 0 5-2.243 5-5v-54c0-2.757-2.243-5-5-5zm-33 21.002h36v35h-36zm3-19.002h30c1.654 0 3 1.346 3 3v14.002h-36v-14.002c0-1.654 1.346-3 3-3zm30 60h-30c-1.654 0-3-1.346-3-3v-.998h36v.998c0 1.654-1.346 3-3 3z"/><path d="m26.002 59h-4c-.553 0-1 .447-1 1s.447 1 1 1h4c.553 0 1-.447 1-1s-.447-1-1-1z"/><path d="m34.002 59h-4c-.553 0-1 .447-1 1s.447 1 1 1h4c.553 0 1-.447 1-1s-.447-1-1-1z"/><path d="m42.002 59h-4c-.553 0-1 .447-1 1s.447 1 1 1h4c.553 0 1-.447 1-1s-.447-1-1-1z"/></svg>