<?xml version="1.0" encoding="iso-8859-1"?>
<!-- Generator: Adobe Illustrator 19.0.0, SVG Export Plug-In . SVG Version: 6.00 Build 0)  -->
<svg version="1.1" id="Capa_1" xmlns="http://www.w3.org/2000/svg" xmlns:xlink="http://www.w3.org/1999/xlink" x="0px" y="0px"
	 viewBox="0 0 512.001 512.001" style="enable-background:new 0 0 512.001 512.001;" xml:space="preserve">
<path style="fill:#96D2E0;" d="M260.603,483.308c-4.204,0-7.612-3.407-7.612-7.612V312.915c0-4.205,3.408-7.612,7.612-7.612
	s7.612,3.407,7.612,7.612v162.782C268.215,479.901,264.807,483.308,260.603,483.308z"/>
<path style="fill:#B6E3EE;" d="M77.115,175.74H444.09c5.852,0,8.335,7.449,3.654,10.961L264.256,324.315
	c-2.165,1.624-5.142,1.624-7.307,0L73.461,186.7C68.781,183.189,71.263,175.74,77.115,175.74z"/>
<path style="fill:#96D2E0;" d="M444.091,175.74h-20.297c5.852,0,8.335,7.449,3.654,10.961L250.454,319.444l6.495,4.871
	c2.165,1.624,5.142,1.624,7.307,0L447.745,186.7C452.425,183.189,449.943,175.74,444.091,175.74z"/>
<path style="fill:#B6E3EE;" d="M195.39,500.689l62.082-37.248c1.928-1.157,4.338-1.157,6.266,0l62.081,37.248
	c5.296,3.178,3.043,11.311-3.133,11.311H198.523C192.346,512,190.093,503.866,195.39,500.689z"/>
<circle style="fill:#00CE96;" cx="109.283" cy="125.306" r="50.439"/>
<path style="fill:#00BA88;" d="M109.286,74.862c-3.476,0-6.871,0.352-10.149,1.022c22.993,4.697,40.29,25.037,40.29,49.418
	c0,24.38-17.298,44.72-40.29,49.418c3.278,0.67,6.673,1.022,10.149,1.022c27.857,0,50.439-22.583,50.439-50.439
	C159.725,97.444,137.143,74.862,109.286,74.862z"/>
<path style="fill:#FFD151;" d="M116.822,124.225L100.007,6.534c-0.595-4.162-4.454-7.042-8.611-6.459
	c-4.162,0.595-7.053,4.45-6.459,8.611l16.813,117.691c0.543,3.797,3.799,6.537,7.525,6.537c0.358,0,0.722-0.025,1.086-0.077
	C114.524,132.241,117.415,128.387,116.822,124.225z"/>
<path style="fill:#96D2E0;" d="M325.817,500.689l-62.081-37.248c-1.928-1.157-4.338-1.157-6.266,0l-7.016,4.21l55.065,33.039
	c5.296,3.178,3.043,11.311-3.133,11.311h20.297C328.86,512,331.113,503.866,325.817,500.689z"/>
<path style="fill:#FF2551;" d="M137.31,234.586l119.64,89.73c2.165,1.624,5.142,1.624,7.307,0l119.64-89.73L137.31,234.586
	L137.31,234.586z"/>
<path style="fill:#C21750;" d="M363.599,234.586l-113.145,84.858l6.495,4.871c2.165,1.624,5.142,1.624,7.307,0l119.64-89.73
	L363.599,234.586L363.599,234.586z"/>
<path style="fill:#00BCE7;" d="M449.857,18.15c-3.464-2.383-8.202-1.502-10.584,1.961L254.331,289.119
	c-2.382,3.464-1.504,8.203,1.96,10.585c1.317,0.906,2.819,1.34,4.305,1.34c2.422,0,4.803-1.154,6.279-3.3L451.817,28.734
	C454.198,25.27,453.32,20.531,449.857,18.15z"/>
<g>
</g>
<g>
</g>
<g>
</g>
<g>
</g>
<g>
</g>
<g>
</g>
<g>
</g>
<g>
</g>
<g>
</g>
<g>
</g>
<g>
</g>
<g>
</g>
<g>
</g>
<g>
</g>
<g>
</g>
</svg>
