<svg width="241" height="235" viewBox="0 0 241 235" fill="none" xmlns="http://www.w3.org/2000/svg">
<g clip-path="url(#clip0)">
<path d="M207.863 33.7812H180.248V80.7813H207.863V33.7812Z" fill="#F05540"/>
<path d="M218.406 9.7915H169.704V35.25H218.406V9.7915Z" fill="#F3705A"/>
<path d="M21.0875 126.802V235H217.904V126.802C179.244 89.1045 157.654 68.0522 119.496 30.8438C81.3375 68.5415 59.7478 89.5937 21.0875 126.802Z" fill="#415A6B"/>
<path d="M218.406 126.802C179.746 89.1045 158.156 68.0522 119.998 30.8438C100.417 49.4478 85.354 64.1353 70.2915 78.8228C55.229 93.5103 40.1665 108.198 21.0875 126.802V148.833C59.7478 111.135 81.3375 90.083 119.496 52.8745C158.156 90.5723 179.746 111.625 217.905 148.833V151.771V126.802H218.406V126.802Z" fill="#415A6B"/>
<path d="M101.923 235H42.6772V178.208C42.6772 162.052 56.2335 149.323 72.3 149.323C88.8688 149.323 101.923 162.542 101.923 178.208V235Z" fill="#F3705A"/>
<path d="M196.817 149.323H119.496V215.417H196.817V149.323Z" fill="#F3705A"/>
<path d="M154.139 157.156H127.529V207.583H154.139V157.156Z" fill="#8AD7F8"/>
<path d="M188.783 157.156H162.173V207.583H188.783V157.156Z" fill="#8AD7F8"/>
<path d="M236.481 106.729L131.546 4.40625C125.521 -1.46875 114.977 -1.46875 108.952 4.40625L4.51875 106.729C-1.50625 112.604 -1.50625 122.885 4.51875 128.76C10.5438 134.635 21.0875 134.635 27.1125 128.76L120.5 37.6978L213.887 128.76C219.912 134.635 230.456 134.635 236.481 128.76C242.506 122.396 242.506 112.604 236.481 106.729Z" fill="#F3705A"/>
</g>
<defs>
<clipPath id="clip0">
<rect width="241" height="235" fill="white"/>
</clipPath>
</defs>
</svg>
