<?xml version="1.0" encoding="iso-8859-1"?>
<!-- Generator: Adobe Illustrator 19.0.0, SVG Export Plug-In . SVG Version: 6.00 Build 0)  -->
<svg version="1.1" id="Capa_1" xmlns="http://www.w3.org/2000/svg" xmlns:xlink="http://www.w3.org/1999/xlink" x="0px" y="0px"
	 viewBox="0 0 512.04 512.04" style="enable-background:new 0 0 512.04 512.04;" xml:space="preserve">
<rect x="62.42" y="58.12" style="fill:#32BEA6;" width="387.2" height="453.92"/>
<g>
	<polygon style="fill:#FFD983;" points="449.324,112.784 449.324,58.416 394.964,58.416 	"/>
	<polygon style="fill:#FFD983;" points="62.42,112.784 62.42,58.416 116.78,58.416 	"/>
	<polygon style="fill:#FFD983;" points="449.324,457.68 449.324,512.04 394.964,512.04 	"/>
	<polygon style="fill:#FFD983;" points="62.42,457.68 62.42,512.04 116.78,512.04 	"/>
</g>
<polygon style="fill:#FFFFFF;" points="111.412,284.736 197.972,181.928 284.532,284.736 "/>
<polygon style="fill:#E04F5F;" points="180.388,284.736 299.14,146.944 417.892,284.736 "/>
<circle style="fill:#FFFFFF;" cx="229.18" cy="132.984" r="29.176"/>
<rect x="116.116" width="18.848" height="58.184"/>
<rect x="363.084" width="18.848" height="58.184"/>
<rect x="142.636" y="333.84" style="fill:#FFFFFF;" width="212.736" height="12"/>
<g style="opacity:0.25;">
	<rect x="142.636" y="385.448" style="fill:#FFFFFF;" width="212.736" height="8"/>
</g>
<g style="opacity:0.25;">
	<rect x="142.636" y="434.968" style="fill:#FFFFFF;" width="212.736" height="8"/>
</g>
<g>
</g>
<g>
</g>
<g>
</g>
<g>
</g>
<g>
</g>
<g>
</g>
<g>
</g>
<g>
</g>
<g>
</g>
<g>
</g>
<g>
</g>
<g>
</g>
<g>
</g>
<g>
</g>
<g>
</g>
</svg>
