<svg width="30" height="27" viewBox="0 0 30 27" fill="none" xmlns="http://www.w3.org/2000/svg">
<path d="M28.7205 9.43279C28.5852 9.43279 28.4463 9.45208 28.3076 9.49042L26.8506 9.8917L25.3105 6.1404C24.8491 5.0161 23.4847 4.10131 22.2693 4.10131H21.2445V0.991325C21.2445 0.444642 20.7998 0 20.2532 0H9.74697C9.20029 0 8.75564 0.444642 8.75564 0.991325V4.10131H7.70973C6.49437 4.10131 5.12991 5.01597 4.66848 6.14027L3.13047 9.88642L1.69252 9.49028C1.55387 9.45208 1.41482 9.43265 1.2796 9.43265C0.538223 9.43279 0 9.9993 0 10.7797V11.577C0 12.488 0.741247 13.2292 1.65221 13.2292H1.75821L1.53827 13.7647C1.10949 14.8093 0.760544 16.5779 0.760544 17.7069V25.1909C0.760544 26.102 1.50166 26.8431 2.41275 26.8431H4.39897C5.31006 26.8431 6.05118 26.102 6.05118 25.1909V23.3515H23.9279V25.1909C23.9279 26.102 24.6692 26.8431 25.5801 26.8431H27.566C28.4771 26.8431 29.2182 26.102 29.2182 25.1909V17.7069C29.2182 16.5779 28.8692 14.8093 28.4404 13.7647L28.2205 13.2292H28.3478C29.2589 13.2292 30 12.488 30 11.577V10.7797C30 9.9993 29.4619 9.43279 28.7205 9.43279ZM18.9822 1.32203C18.9822 1.30022 19 1.28238 19.0218 1.28238H19.7855C19.8073 1.28238 19.8252 1.30022 19.8252 1.32203V4.07091C19.8252 4.08413 19.8176 4.09404 19.8077 4.10131H18.9996C18.9897 4.09404 18.9822 4.08413 18.9822 4.07091V1.32203ZM13.5048 1.28238H14.4225C14.4443 1.28238 14.4687 1.2989 14.4768 1.31926L15.566 4.05743L16.5645 2.82224C16.5783 2.80532 16.5796 2.7765 16.5675 2.75839L15.6093 1.31542C15.5971 1.29718 15.6052 1.28238 15.627 1.28238H16.4757C16.4975 1.28238 16.5247 1.29758 16.5361 1.31608L17.03 2.11734C17.0414 2.13597 17.0602 2.13597 17.0715 2.11734L17.5659 1.31608C17.5772 1.29745 17.6045 1.28238 17.6263 1.28238H18.4754C18.4972 1.28238 18.5051 1.29718 18.4931 1.31542L17.534 2.75839C17.5219 2.77663 17.5233 2.80532 17.5369 2.82224L18.5536 4.07976C18.5605 4.08809 18.5621 4.09589 18.5596 4.10144H17.6584C17.6465 4.09523 17.6358 4.0869 17.6296 4.07699L17.0717 3.18414C17.06 3.16563 17.0413 3.16563 17.0296 3.18414L16.4729 4.07699C16.4667 4.0869 16.456 4.09523 16.4441 4.10144H14.746C14.7344 4.09457 14.7243 4.08505 14.7205 4.07302L14.5334 3.49991C14.5266 3.47915 14.5032 3.46224 14.4814 3.46224H13.4412C13.4194 3.46224 13.3956 3.47902 13.3884 3.49964L13.1867 4.07329C13.1825 4.08518 13.1725 4.0947 13.1607 4.10144H12.344C12.3375 4.0947 12.3347 4.08545 12.3394 4.07395L13.4502 1.31939C13.4585 1.2989 13.4829 1.28238 13.5048 1.28238ZM10.8189 4.07091V1.88735C10.8189 1.86554 10.8011 1.8477 10.7793 1.8477H9.8613C9.83949 1.8477 9.82165 1.82985 9.82165 1.80804V1.3219C9.82165 1.30009 9.83949 1.28225 9.8613 1.28225H12.6251C12.6469 1.28225 12.6648 1.30009 12.6648 1.3219V1.80804C12.6648 1.82985 12.6469 1.8477 12.6251 1.8477H11.7019C11.6801 1.8477 11.6622 1.86554 11.6622 1.88735V4.07091C11.6622 4.08413 11.6547 4.09404 11.6448 4.10131H10.8364C10.8265 4.09417 10.8189 4.08413 10.8189 4.07091ZM4.29786 12.3083L6.63804 6.60764C6.91416 5.93513 7.73484 5.38488 8.46182 5.38488H21.5172C22.2441 5.38488 23.0648 5.93513 23.3409 6.60764L25.6811 12.3083C25.9572 12.9808 25.5883 13.5311 24.8614 13.5311H5.11761C4.39064 13.5311 4.02174 12.9808 4.29786 12.3083ZM9.58439 19.6496C9.58439 20.0131 9.287 20.3105 8.92351 20.3105H4.45673C4.09325 20.3105 3.79585 20.0131 3.79585 19.6496V17.5306C3.79585 17.1671 4.09325 16.8697 4.45673 16.8697H8.92351C9.287 16.8697 9.58439 17.1671 9.58439 17.5306V19.6496ZM26.1403 19.6496C26.1403 20.0131 25.8429 20.3105 25.4794 20.3105H21.0126C20.6492 20.3105 20.3518 20.0131 20.3518 19.6496V17.5306C20.3518 17.1671 20.6492 16.8697 21.0126 16.8697H25.4794C25.8429 16.8697 26.1403 17.1671 26.1403 17.5306V19.6496V19.6496Z" fill="#6E7277"/>
<path d="M14.2958 2.89678C14.3177 2.89678 14.3284 2.88039 14.3198 2.86043L13.9904 2.10028C13.9817 2.08033 13.9671 2.08006 13.9581 2.09989L13.6093 2.86083C13.6003 2.88065 13.6106 2.89678 13.6325 2.89678H14.2958Z" fill="#6E7277"/>
</svg>
