<svg width="512" height="512" viewBox="0 0 512 512" fill="none" xmlns="http://www.w3.org/2000/svg">
<g clip-path="url(#clip0)">
<path d="M273.493 205.184C118.997 284.8 221.76 498.411 414.507 442.645C432.469 449.621 448.469 460.928 465.877 469.333C461.376 454.187 456.576 439.211 451.456 424.299C511.189 381.739 524.288 321.515 502.208 272.021C467.733 193.579 357.653 161.451 273.493 205.184V205.184ZM327.467 283.221C323.008 297.195 302.805 301.376 293.013 290.752C282.219 280.917 286.421 260.373 300.587 255.979C316.245 249.365 334.336 267.52 327.467 283.221V283.221ZM429.44 285.227H429.739C424.256 297.749 405.397 300.693 396.139 290.987C391.68 286.891 390.379 280.725 388.8 275.349C391.019 265.536 397.76 255.36 408.64 254.891C423.68 252.8 437.141 271.445 429.44 285.227Z" fill="#6E7277"/>
<path d="M371.499 175.957C362.197 130.219 330.197 91.584 289.92 69.2907H290.496V69.2693C147.563 -11.4987 -30.4 101.163 3.98933 234.027C13.2267 273.451 40.4907 306.496 73.5787 328.555C67.1787 346.752 61.0987 364.949 55.3387 383.275C76.1387 372.352 96.9387 360.939 117.76 349.845C142.72 357.888 169.28 361.813 195.84 360.939C163.029 266.816 247.189 167.104 371.499 175.957V175.957ZM241.856 121.323C258.603 114.581 278.4 128.683 277.077 146.709L277.12 146.965C277.291 167.552 249.92 180.395 234.56 166.443C218.624 154.965 223.147 127.083 241.856 121.323V121.323ZM147.883 152.192C144.213 170.069 120.341 178.709 106.368 166.699C90.176 155.243 94.72 126.848 113.728 121.067C132.352 113.856 153.515 132.843 147.883 152.192V152.192Z" fill="#6E7277"/>
</g>
<defs>
<clipPath id="clip0">
<rect width="512" height="512" fill="white"/>
</clipPath>
</defs>
</svg>
